<svg xmlns="http://www.w3.org/2000/svg" viewBox="0 0 64 64">
  <rect width="64" height="64" fill="#d4ff00"/>
  <path transform="translate(8.5, 56.8) scale(0.75)" fill="#010101" d="M48.800-45.800C47-45.800 41.333-43.633 31.800-39.300L26.200-36.800L26.500-39.200C26.767-41.067 26.900-42.267 26.900-42.800C26.900-43.267 27.100-43.650 27.500-43.950C27.900-44.250 28.867-44.733 30.400-45.400C35.933-47.800 41.500-50.533 47.100-53.600C52.700-56.667 55.800-58.667 56.400-59.600C56.933-60.533 57.200-61.467 57.200-62.400C57.200-64.533 56.333-66.100 54.600-67.100C53.667-67.567 52.867-67.800 52.200-67.800C50.933-67.800 48.200-66.633 44-64.300C40.333-62.233 36.567-60.300 32.700-58.500L27.200-55.900L25.700-57C24.767-57.667 23.700-58 22.500-58C21.367-58 20.400-57.733 19.600-57.200C18.267-56.333 17.433-54.967 17.100-53.100C16.967-52.367 16.683-51.817 16.250-51.450C15.817-51.083 14.700-50.433 12.900-49.500C10.167-48.100 8.500-47.133 7.900-46.600C7.433-46.200 7-45.483 6.600-44.450C6.200-43.417 6-42.467 6-41.600C6-41.200 6.033-40.933 6.100-40.800C6.433-39.467 7.483-38.133 9.250-36.800C11.017-35.467 12.633-34.800 14.100-34.800C14.767-34.800 15.167-34.733 15.300-34.600C15.433-34.467 15.500-34.133 15.500-33.600C15.433-32 15.167-30.883 14.700-30.250C14.233-29.617 13.033-28.667 11.100-27.400C8.900-25.867 7.417-24.633 6.650-23.700C5.883-22.767 5.500-21.633 5.500-20.300L5.500-19.600C5.633-17.867 6.300-16.467 7.500-15.400C8.700-14.333 10.200-13.800 12-13.800L13.800-13.800L13.800-8.200C13.800-4.400 14-2.100 14.400-1.300C15.333 0.633 16.867 1.600 19 1.600C20.867 1.600 22.367 0.833 23.500-0.700C24.100-1.567 24.433-4.534 24.500-9.600C24.567-12.600 24.733-16.200 25-20.400L25.300-23.200L27.900-25C31.567-27.334 38-30.300 47.200-33.900C50.067-34.967 51.933-35.934 52.800-36.800C53.667-37.667 54.100-38.900 54.100-40.500C54.100-42.167 53.600-43.467 52.600-44.400C51.600-45.334 50.333-45.800 48.800-45.800"/>
</svg>
